<svg width="1920" height="1080" fill="none" xmlns="http://www.w3.org/2000/svg"><g clip-path="url(#clip0)"><path d="M1483.5 1080c85.88 0 155.5-69.62 155.5-155.5S1569.38 769 1483.5 769 1328 838.62 1328 924.5s69.62 155.5 155.5 155.5z" fill="#009ABF"/><path d="M1820.92 983.789c-.14-.289-.28-.577-.43-.866-26.68-53.458-91.42-75.275-144.6-48.731-53.18 26.545-74.67 91.398-47.98 144.858.14.29.29.58.43.86l192.58-96.121z" fill="#FCD672"/><path d="M1795.76 761.333l-74.2 24.806 50.1 149.845 148.39-49.611-25.04-74.922-74.2 24.805-25.05-74.923z" fill="#80C7BC"/><path d="M1543.18 608.392l-59.76 40.261 120.27 178.505 59.76-40.261c49.39-33.281 62.8-100.22 29.49-149.645-33.3-49.424-100.37-62.141-149.76-28.86z" fill="#7473C0"/></g><defs><clipPath id="clip0"><path fill="#fff" d="M0 0h1920v1080H0z"/></clipPath></defs></svg>